<?xml version="1.0" encoding="UTF-8" standalone="no"?>
<!-- Created with Inkscape (http://www.inkscape.org/) -->

<svg
   width="210mm"
   height="297mm"
   viewBox="0 0 210 297"
   version="1.1"
   id="svg5"
   xml:space="preserve"
   inkscape:version="1.2.2 (b0a84865, 2022-12-01)"
   sodipodi:docname="logo_imperia.svg"
   xmlns:inkscape="http://www.inkscape.org/namespaces/inkscape"
   xmlns:sodipodi="http://sodipodi.sourceforge.net/DTD/sodipodi-0.dtd"
   xmlns="http://www.w3.org/2000/svg"
   xmlns:svg="http://www.w3.org/2000/svg"><sodipodi:namedview
     id="namedview7"
     pagecolor="#ffffff"
     bordercolor="#000000"
     borderopacity="0.25"
     inkscape:showpageshadow="2"
     inkscape:pageopacity="0.0"
     inkscape:pagecheckerboard="0"
     inkscape:deskcolor="#d1d1d1"
     inkscape:document-units="mm"
     showgrid="false"
     inkscape:zoom="0.32355917"
     inkscape:cx="372.42029"
     inkscape:cy="509.95309"
     inkscape:window-width="1440"
     inkscape:window-height="762"
     inkscape:window-x="0"
     inkscape:window-y="25"
     inkscape:window-maximized="1"
     inkscape:current-layer="layer1" /><defs
     id="defs2" /><g
     inkscape:label="Layer 1"
     inkscape:groupmode="layer"
     id="layer1"><path
       style="fill:#c59334;stroke:none;stroke-width:2.11666"
       d="m 106.63375,66.549985 c -9.020637,13.63256 -14.305357,14.81048 -17.336315,30.93712 -8.80304,-3.79376 -15.1932,-5.89336 -27.11368,-7.65376 0,11.157285 7.3112,30.279925 7.3112,30.279925 0,0 -21.480944,-5.31168 -41.177824,1.76144 9.5184,21.35632 39.596864,34.03856 61.288784,36.56608 0.6768,-0.16 -5.74368,-0.81904 -15.73048,5.7252 -5.52232,3.61872 -8.52376,9.37192 -12.618,10.6472 -4.07576,1.26952 -5.740944,1.27744 -17.309424,-3.38104 l 11.92344,-13.53896 -4.27104,-2.4432 -16.93328,19.05 c 17.40176,6.66304 32.424304,11.092 50.799984,6.35 -0.1848,15.65216 -6.8832,20.5264 -21.16672,25.4 l 2.11672,-16.93328 h -8.46672 l -2.116624,29.63328 c 22.860224,-9.50488 39.746142,-17.0288 50.799979,-40.21664 11.05384,23.18784 27.93976,30.71176 50.8,40.21664 l -2.11664,-29.63328 h -8.46672 l 2.11672,16.93328 c -14.45304,-4.1736 -25.64808,-15.08784 -25.8284,-30.35304 22.27568,11.5468 38.62,5.05144 55.46168,-1.39696 l -12.7,-19.05 h 0.4288 l -6.7784,2.11672 9.1864,12.7 c -9.07296,2.58168 -16.63208,-5.43544 -25.76264,-8.93712 -9.64952,-3.70072 -7.19424,-4.4784 -16.39896,-5.21968 18.48696,-2.81904 42.45576,1.57992 58.3752,-34.52656 -14.7412,-2.77744 -27.84704,-4.64264 -43.72632,-1.99544 8.41544,-9.19336 9.61848,-19.39728 9.85968,-29.754565 -13.20096,1.9496 -16.26488,2.3376 -27.26176,7.26496 -3.2496,-12.18856 -7.89664,-18.08024 -17.18824,-30.54832 m 0.9512,7.53288 c 15.372,14.08016 8.74256,30.691605 -1.31968,47.191765 -8.475757,-16.21384 -16.859835,-31.526965 1.16536,-47.483125 m -0.7968,52.025205 c 5.23536,-9.34344 17.57376,-30.909205 36.90424,-28.509685 5.5972,15.186485 -14.74464,26.605685 -19.97088,28.509685 l 2.11664,-12.7 -15.32216,29.84744 c 18.778,-15.96344 42.15944,-20.1332 65.78504,-17.14744 -6.52312,14.51312 -19.24128,25.09504 -37.89984,16.27344 l 8.6036,-12.04016 -19.63272,15.39944 c 0,0 5.18784,1.19776 10.0844,1.80632 5.80512,0.7216 11.9016,1.77792 9.54832,3.23576 -4.33832,2.68712 -27.73088,5.464 -27.73088,5.464 0,0 14.55576,3.66984 22.15688,7.44712 8.76784,4.35704 13.5004,11.75728 13.5004,11.75728 -14.93632,8.32192 -38.93928,-8.97216 -38.93928,-8.97216 0,0 1.31224,5.01456 3.24152,11.27904 1.92936,6.26448 2.3716,11.84992 2.3716,11.84992 -13.51512,-11.34176 -10.78528,-13.91952 -15.1852,-30.0616 -5.91712,20.90312 -6.14168,23.1284 -14.448077,30.0616 0,0 -3.142718,-0.3912 -1.533278,-10.67416 1.609438,-10.28272 6.272078,-13.03752 6.272078,-13.03752 0,0 -4.8316,1.62304 -14.928158,11.76016 -13.30144,3.83088 -14.3964,-0.4568 -14.3964,-0.4568 0,0 5.51992,-7.00952 9.51336,-10.65016 3.99336,-3.64064 20.316798,-8.8456 20.316798,-8.8456 l -24.740158,-7.06968 c 0,0 -8.46768,-3.02896 -3.7876,-3.35928 4.68008,-0.3304 16.93336,-2.11664 16.93336,-2.11664 l -19.05,-14.52536 10.9344,11.45744 c -14.50656,4.4272 -29.948384,-2.00752 -36.334384,-15.69072 23.625584,-2.98576 42.236784,2.05808 61.014779,18.02152 l -14.448155,-31.01288 2.11664,12.7 c -12.88688,-4.6948 -21.50488,-13.33536 -21.67216,-27.362325 18.1832,-5.92112 30.184398,12.758805 38.605515,27.362325 m -10.583357,78.31664 -2.11664,2.11664 12.622877,22.54624 2.19376,-3.49624 10.58336,-19.05 -2.11664,-2.11664 -10.81376,13.40232 z"
       id="path125"
       sodipodi:nodetypes="ccccccssccccccccccccccccccccsccccccccccccccccccsscscczccczccczcczccccccccccccccccc" /></g></svg>
